# xmcd
#
# Track frame offsets:
#	150
#	13100
#	31119
#	47025
#	64535
#	79157
#	96867
#	110120
#	129840
#	143130
#
# Disc length: 2128 seconds
#
# Revision: 0
# Processed by: cddbd v1.5.1PL2 Copyright (c) Steve Scherf et al.
# Submitted via: dBpowerAMP V4.0
#
DISCID=7d084e0a
DTITLE=Pam Tillis - All American Country
DYEAR=2003
DGENRE=Country
TTITLE0=Mi Vida Loca (My Crazy Life)
TTITLE1=Maybe It Was Memphis
TTITLE2=Let That Pony Run
TTITLE3=Spilled Perfume
TTITLE4=Cleopatra, Queen Of Denial
TTITLE5=Betty's Got A Bass Boat
TTITLE6=I Said A Prayer
TTITLE7=The River And The Highway
TTITLE8=A Wisper And A Scream
TTITLE9=Waiting On The Wind (Duet With Mel Tillis)
EXTD=
EXTT0=
EXTT1=
EXTT2=
EXTT3=
EXTT4=
EXTT5=
EXTT6=
EXTT7=
EXTT8=
EXTT9=
PLAYORDER=
